<?xml version="1.0" encoding="UTF-8" standalone="no"?>
<!-- Generator: Adobe Illustrator 16.0.0, SVG Export Plug-In . SVG Version: 6.00 Build 0)  -->

<svg
   xmlns:dc="http://purl.org/dc/elements/1.1/"
   xmlns:cc="http://creativecommons.org/ns#"
   xmlns:rdf="http://www.w3.org/1999/02/22-rdf-syntax-ns#"
   xmlns:svg="http://www.w3.org/2000/svg"
   xmlns="http://www.w3.org/2000/svg"
   xmlns:sodipodi="http://sodipodi.sourceforge.net/DTD/sodipodi-0.dtd"
   xmlns:inkscape="http://www.inkscape.org/namespaces/inkscape"
   version="1.1"
   id="Layer_1"
   x="0px"
   y="0px"
   width="32px"
   height="32px"
   viewBox="0 0 32 32"
   enable-background="new 0 0 32 32"
   xml:space="preserve"
   inkscape:version="0.48.4 r9939"
   sodipodi:docname="trash2.svg"><metadata
   id="metadata3052"><rdf:RDF><cc:Work
       rdf:about=""><dc:format>image/svg+xml</dc:format><dc:type
         rdf:resource="http://purl.org/dc/dcmitype/StillImage" /></cc:Work></rdf:RDF></metadata><defs
   id="defs3050" /><sodipodi:namedview
   pagecolor="#ffffff"
   bordercolor="#666666"
   borderopacity="1"
   objecttolerance="10"
   gridtolerance="10"
   guidetolerance="10"
   inkscape:pageopacity="0"
   inkscape:pageshadow="2"
   inkscape:window-width="1074"
   inkscape:window-height="914"
   id="namedview3048"
   showgrid="true"
   inkscape:zoom="10.429825"
   inkscape:cx="19.92357"
   inkscape:cy="10.641045"
   inkscape:window-x="0"
   inkscape:window-y="0"
   inkscape:window-maximized="0"
   inkscape:current-layer="Layer_1"><inkscape:grid
     type="xygrid"
     id="grid3054" /></sodipodi:namedview>
<g
   id="trash"
   transform="matrix(0.79796949,0,0,0.79796949,2.9927909,3.4929329)">
	<path
   clip-rule="evenodd"
   d="M 29.98,6.819 C 29.884,5.249 28.593,4.003 27,4.003 h -3 v -1 -0.002 c 0,-1.657 -1.344,-3 -3,-3 H 11 c -1.657,0 -3,1.343 -3,3 v 10e-4 1 H 5 c -1.595,0 -2.885,1.246 -2.981,2.816 H 2 v 1.183 1 c 0,1.104 0.896,2 2,2 l 0,0 v 17 c 0,2.209 1.791,4 4,4 h 16 c 2.209,0 4,-1.791 4,-4 v -17 l 0,0 c 1.104,0 2,-0.896 2,-2 v -1 -1.182 H 29.98 z M 10,3.002 c 0,-0.553 0.447,-1 1,-1 h 10 c 0.553,0 1,0.447 1,1 v 1 H 10 v -1 z m 16,25 c 0,1.102 -0.898,2 -2,2 H 8 c -1.103,0 -2,-0.898 -2,-2 v -17 h 20 v 17 z M 28,8.001 v 1 H 4 v -1 -0.999 c 0,-0.553 0.447,-1 1,-1 h 22 c 0.553,0 1,0.447 1,1 v 0.999 z"
   id="path3040"
   inkscape:connector-curvature="0"
   style="fill:#333333;fill-rule:evenodd" />
	<path
   clip-rule="evenodd"
   d="m 9,28.006 h 2 c 0.553,0 1,-0.447 1,-1 v -13 c 0,-0.553 -0.447,-1 -1,-1 H 9 c -0.553,0 -1,0.447 -1,1 v 13 c 0,0.553 0.447,1 1,1 z M 9,14.005 h 2 v 13 H 9 v -13 z"
   id="path3042"
   inkscape:connector-curvature="0"
   style="fill:#333333;fill-rule:evenodd" />
	<path
   clip-rule="evenodd"
   d="m 15,28.006 h 2 c 0.553,0 1,-0.447 1,-1 v -13 c 0,-0.553 -0.447,-1 -1,-1 h -2 c -0.553,0 -1,0.447 -1,1 v 13 c 0,0.553 0.447,1 1,1 z m 0,-14.001 h 2 v 13 h -2 v -13 z"
   id="path3044"
   inkscape:connector-curvature="0"
   style="fill:#333333;fill-rule:evenodd" />
	<path
   clip-rule="evenodd"
   d="m 21,28.006 h 2 c 0.553,0 1,-0.447 1,-1 v -13 c 0,-0.553 -0.447,-1 -1,-1 h -2 c -0.553,0 -1,0.447 -1,1 v 13 c 0,0.553 0.447,1 1,1 z m 0,-14.001 h 2 v 13 h -2 v -13 z"
   id="path3046"
   inkscape:connector-curvature="0"
   style="fill:#333333;fill-rule:evenodd" />
</g>
</svg>